PathFileType	4	(X/Y/Z)	E:\Qualisys_Data\Carbon_Farble_Plate\Data\Amateur_Runner\S2\T3\S2T3V13_c3d.trc
DataRate	CameraRate	NumFrames	NumMarkers	Units	OrigDataRate	OrigDataStartFrame	OrigNumFrames
200.000000	200.000000	4	39	mm	200.000000	39	312
Frame#	Time	LSHO			RSHO			LICST			RICST			LASIS			LHEEL			RASIS			LTROC			RTROC			SACR			LTH1			LSK4			LTH2			LTH3			RHM5			LSK2			LTH4			RTH1			LTOE			RTH2			RTH3			RTH4			LLEP			RLEP			LSK1			LSK3			RSK1			LHM5			RSK2			LFT1			RSK3			RSK4			LLME			RLME			RTOE			RHEEL			RFT1			RFT2			LFT2			
		X1	Y1	Z1	X2	Y2	Z2	X3	Y3	Z3	X4	Y4	Z4	X5	Y5	Z5	X6	Y6	Z6	X7	Y7	Z7	X8	Y8	Z8	X9	Y9	Z9	X10	Y10	Z10	X11	Y11	Z11	X12	Y12	Z12	X13	Y13	Z13	X14	Y14	Z14	X15	Y15	Z15	X16	Y16	Z16	X17	Y17	Z17	X18	Y18	Z18	X19	Y19	Z19	X20	Y20	Z20	X21	Y21	Z21	X22	Y22	Z22	X23	Y23	Z23	X24	Y24	Z24	X25	Y25	Z25	X26	Y26	Z26	X27	Y27	Z27	X28	Y28	Z28	X29	Y29	Z29	X30	Y30	Z30	X31	Y31	Z31	X32	Y32	Z32	X33	Y33	Z33	X34	Y34	Z34	X35	Y35	Z35	X36	Y36	Z36	X37	Y37	Z37	X38	Y38	Z38	X39	Y39	Z39	

40	0.195	-1889.870483398438	1427.924682617188	-508.3386840820312	-1882.178344726562	1385.066040039062	-189.6191558837891	-1974.21142578125	961.9209594726562	-520.2025146484375	-1977.983764648438	948.3221435546876	-213.8805389404297	-1916.5078125	912.7357177734376	-501.1105651855469	-2253.915771484375	381.3216247558594	-428.1759643554688	-1914.385620117188	907.0462036132812	-238.5985412597656	-2041.0322265625	834.660400390625	-519.4049682617188	-2058.9462890625	850.6223754882812	-216.5216979980469	-2062.962158203125	1002.817932128906	-368.602294921875	-1845.883056640625	624.2757568359375	-539.6148681640625	-2079.73486328125	433.6628112792969	-516.4288940429688	-1926.47998046875	600.9863891601562	-543.3641357421875	-1818.429931640625	525.7157592773438	-521.9234619140625	-2042.033569335938	74.0921859741211	-272.8607177734375	-1982.763305664062	463.7666625976562	-532.1370849609375	-1901.749267578125	504.6732482910156	-523.241943359375	-1899.925170898438	584.942138671875	-226.0933990478516	-2169.8759765625	150.7940368652344	-477.0993957519531	-1978.033325195312	580.8426513671875	-223.0079650878906	-1894.923950195312	488.6886596679688	-258.6584167480469	-1976.581909179688	487.0778503417969	-249.3296356201172	-1858.270629882812	472.1994323730469	-526.0020751953125	-1943.823364257812	453.6936645507812	-248.6440582275391	-1953.8388671875	388.8327941894531	-522.9826049804688	-2048.324462890625	355.3097839355469	-512.4795532226562	-1959.205688476562	328.9720153808594	-260.6546936035156	-2215.856689453125	206.8489074707031	-527.1009521484375	-2025.73486328125	370.1661987304688	-239.8415679931641	-2272.80810546875	358.62548828125	-398.3328247070312	-2015.083740234375	244.7934265136719	-275.5278015136719	-2079.439453125	287.3512573242188	-254.7768096923828	-2223.10009765625	334.9932556152344	-487.5863342285156	-2148.2861328125	117.9340057373047	-296.1166687011719	-1977.820556640625	72.47493743896484	-331.1528930664062	-2223.468505859375	111.6095428466797	-353.5478820800781	-2213.4248046875	81.56475067138672	-379.2715759277344	-2227.972900390625	86.44422912597656	-330.4109191894531	-2283.896728515625	369.2264709472656	-449.8101196289062
41	0.2	-1876.925170898438	1431.226318359375	-508.1947937011719	-1865.319091796875	1388.412719726562	-190.9850616455078	-1958.184326171875	964.7945556640624	-519.6609497070312	-1961.314453125	950.9932250976562	-213.7336273193359	-1900.853515625	915.9044189453124	-500.9832153320312	-2229.960205078125	374.3252258300781	-428.0526123046875	-1898.119750976562	908.7559814453124	-239.0842895507812	-2025.075805664062	838.4649658203125	-520.3985595703125	-2042.948608398438	853.1218872070312	-216.3072967529297	-2046.546020507812	1005.281555175781	-367.3645935058594	-1826.144775390625	629.5932006835938	-537.7918090820312	-2052.201904296875	428.5867004394531	-513.9530639648438	-1906.289306640625	604.8238525390625	-542.1273803710938	-1797.022583007812	532.1406860351562	-519.8594970703125	-2041.237182617188	74.31489562988281	-271.6519470214844	-1960.091552734375	465.1971740722656	-530.6181030273438	-1879.383911132812	509.1742553710938	-521.2133178710938	-1891.876953125	585.6134033203125	-225.0524749755859	-2134.98974609375	147.3140869140625	-476.4972839355469	-1969.573608398438	582.8433227539062	-222.9384002685547	-1889.145629882812	488.71533203125	-257.6724853515625	-1970.549560546875	489.0843811035156	-248.8139801025391	-1836.416259765625	477.4780883789062	-524.0867309570312	-1937.812377929688	454.7569274902344	-247.9253387451172	-1929.87939453125	390.4653015136719	-521.3700561523438	-2023.9208984375	355.9264221191406	-512.3209838867188	-1956.149536132812	330.4261474609375	-259.7882995605469	-2182.3359375	200.750732421875	-524.5802612304688	-2021.809448242188	372.1419982910156	-239.3904418945312	-2248.40380859375	350.7716064453125	-399.2490234375	-2012.340454101562	246.7158508300781	-274.8756103515625	-2076.944091796875	289.6328735351562	-254.0214080810547	-2197.082275390625	328.6312561035156	-487.8623962402344	-2147.151611328125	120.5169372558594	-295.5506591796875	-1977.630615234375	72.44828033447266	-330.7989807128906	-2223.38134765625	113.0087432861328	-353.5724487304688	-2212.6494140625	82.84264373779297	-379.5384216308594	-2227.377685546875	87.9469985961914	-330.3246765136719	-2260.4912109375	360.9883117675781	-450.3840942382812
42	0.205	-1863.893310546875	1434.82275390625	-508.9355773925781	-1847.60693359375	1391.650268554688	-191.873046875	-1943.11572265625	968.896728515625	-519.8502807617188	-1943.012329101562	954.4398193359376	-213.9002685546875	-1885.5693359375	920.0216674804688	-500.7542724609375	-2206.535888671875	366.4382019042969	-428.1959533691406	-1880.95263671875	911.2977905273438	-238.5577697753906	-2009.122314453125	842.6058349609375	-521.205078125	-2027.689086914062	856.0267333984375	-216.4744262695312	-2030.528198242188	1008.413818359375	-366.928466796875	-1807.219848632812	635.4767456054688	-536.6609497070312	-2029.615234375	426.9392395019531	-513.5697021484375	-1886.902709960938	610.0228271484375	-541.096435546875	-1776.422729492188	539.3051147460938	-517.8429565429688	-2041.258178710938	74.60047912597656	-272.482666015625	-1938.8486328125	466.9349060058594	-529.6653442382812	-1858.211303710938	514.1464233398438	-519.475341796875	-1883.867553710938	586.367919921875	-224.5763092041016	-2102.51171875	143.6199951171875	-475.1910400390625	-1961.021728515625	585.4830932617188	-222.6085662841797	-1883.466186523438	489.59765625	-256.307861328125	-1963.58984375	491.6989135742188	-248.2885284423828	-1814.803833007812	483.3148498535156	-522.3397216796875	-1932.7578125	456.9704895019531	-246.4443359375	-1904.931762695312	393.0772399902344	-519.9186401367188	-1997.332641601562	353.5858459472656	-511.149658203125	-1951.919189453125	332.4724426269531	-257.9326477050781	-2151.0947265625	195.2200012207031	-525.4849243164062	-2017.904541015625	374.46435546875	-238.4207458496094	-2223.920166015625	342.1153259277344	-399.4104919433594	-2009.394287109375	248.6777038574219	-273.8548278808594	-2073.408935546875	292.3802185058594	-253.6677398681641	-2170.9619140625	322.0569152832031	-487.6866149902344	-2147.673828125	123.7237014770508	-295.4977416992188	-1977.497924804688	72.16697692871094	-330.9928894042969	-2222.376708984375	116.4389572143555	-354.2477722167969	-2212.484375	85.14981842041016	-380.0764770507812	-2226.127685546875	90.91111755371094	-330.4954528808594	-2235.62841796875	351.3269653320312	-450.7926025390625
43	0.21	-1851.106689453125	1438.756713867188	-509.3378601074219	-1829.953369140625	1395.533813476562	-192.47998046875	-1927.513061523438	972.774658203125	-519.4742431640625	-1923.41650390625	957.6586303710938	-212.9518280029297	-1869.662475585938	923.51123046875	-500.4060363769531	-2183.722900390625	360.679931640625	-431.0099182128906	-1864.549438476562	913.8604125976562	-238.8514404296875	-1992.3828125	846.503173828125	-522.1008911132812	-2011.481689453125	859.1663208007812	-216.1215515136719	-2014.284912109375	1011.850646972656	-366.3365173339844	-1788.032348632812	642.2887573242188	-535.1797485351562	-2006.816772460938	425.8414001464844	-513.2362670898438	-1867.882934570312	615.0155639648438	-540.5453491210938	-1756.119506835938	546.4637451171875	-516.6189575195312	-2040.762084960938	74.35292053222656	-272.5018615722656	-1917.659790039062	468.5238647460938	-528.7235717773438	-1837.646850585938	520.3768310546875	-518.3748168945312	-1876.2890625	588.4732055664062	-223.9472198486328	-2068.069091796875	140.9649810791016	-474.453125	-1953.425903320312	588.98095703125	-222.4924163818359	-1877.2705078125	491.3191528320312	-254.4770355224609	-1957.307006835938	494.9349670410156	-248.3889770507812	-1794.817749023438	490.7439575195312	-521.909423828125	-1928.187377929688	458.8196105957031	-246.0610504150391	-1881.468872070312	395.2500610351562	-518.814208984375	-1972.74560546875	354.1767578125	-510.6085815429688	-1948.206420898438	335.0516052246094	-257.7784423828125	-2118.949462890625	190.2633666992188	-525.1305541992188	-2013.963256835938	377.4395751953125	-238.1974029541016	-2199.135986328125	333.8027038574219	-399.7412719726562	-2006.329467773438	251.7546844482422	-273.0564575195312	-2070.349853515625	295.7544555664062	-252.9749603271484	-2144.03466796875	315.956298828125	-486.8656005859375	-2144.45654296875	126.9711761474609	-294.9803466796875	-1976.739379882812	72.43896484375	-330.3836059570312	-2220.15478515625	119.5429534912109	-353.1835327148438	-2210.782958984375	89.06817626953125	-379.3074340820312	-2224.634521484375	95.28772735595705	-330.3830871582031	-2210.338134765625	341.4739379882812	-450.8941040039062
